<svg xmlns="http://www.w3.org/2000/svg" width="387" height="443" viewBox="0 0 387 443">
  <defs>
    <style>
      .cls-1, .cls-2 {
        fill: #252525;
        stroke: #252525;
        stroke-linejoin: round;
        fill-rule: evenodd;
      }

      .cls-1 {
        stroke-width: 2px;
      }

      .cls-2 {
        stroke-width: 1px;
      }
    </style>
  </defs>
  <path class="cls-1" d="M216.78,18c8.474-.6,17.492-4.266,27.035-6,49.009-8.9,105.794,39.435,117.151,69.5,6.008,15.9,4.506,17.43,4.506,28l7.51,6.5c4.342,4.87,7.886,14.446,10.013,21,14.48,44.616-12.112,94.284-40.052,107-8.069,3.672-17.685.1-23.53,1-1.716.94-34.254,30.263-76.6,17-12.266,7.559-15.511,6.877-48.062,10-12.69,2.321-58.918,1.222-69.09-3-7.426-3.082-11.875-9.426-18.524-13-18.064,11.8-39.922,8.031-58.075-1.5C20.559,239.533-6.57,213.3,1.5,163,5.794,136.253,15.4,110.7,32.041,96c4.768-4.188,8.837-7.5,14.519-8,3.756-32.7,36.026-46.849,48.062-45.5C82.832,34.39,166.1-30.59,216.78,18ZM109.642,43.5c0.207,0.474,4.993-.909,19.525,1,10.714,1.408,26.9,6.409,49.564,6,33.051-12.272,28.817-20.081,27.535-22C173.24-8,108.588,35.615,109.642,43.5Zm128.165-16c-11.861,2.957-35.5,16.167-37.548,23.5-1.365,4.87,9.193,9.331,27.535,14.5,18.894,3.428,64.231,62.7,30.717,34.334-15.686-13.277-26.9-23.858-49.241-30.333-11.687-3.388-28.054-5.421-37.548,2-11.473,8.968-25.274,35.779-30.54,51-2.723,7.874-2.2,20.868,3,25,5,3.963,14.447,3.8,21.528,5.5,15.7,3.778,34.56,13.471,40.052,27.5,5.7,14.559-3.083,25.636-12.016,30.5-5.48,2.984-14.236,4.443-15.019-3.5,3.4-4.092,8.473-4,13.017-7-2.16.5,35.358-19.877-38.049-38.5-4.292-1.089-14.32-4.87-21.028-2-4.836,2.069-9.695,8.4-11.514,13.5-3.456,9.683-9.282,56.442-5.007,67,8.939,22.08,45.394,17.5,76.1,17.5,12.1,0,27.694,1.629,35.546-3,11.122-6.557,3.482-28.934,12.516-32,10.983,0.511,5.167,11.384,8.011,21.5,2.277,8.1,14.887,10.762,27.035,8.5,30.934-5.759,37.685-20.742,29.538-54.5-1.81-7.5-3.193-15.83-7.009-21.5-4.939-7.339-25.427-4.484-34.545-7.5-9.8-3.243-53.611-36.69-57.074-44.5-0.4-5.658.563-7.011,5.007-4.5,19.508,9.828,31.459,29.588,52.568,37.5,18.792,7.044,38.671,2.053,45.058-13.5,9.807-23.879-10.789-41.6-12.516-58.5l1.5-.5c5.623,3.5,7.842,10,10.513,16.5,2.121,5.159,6.037,11.617,7.51,17.5,3.71,14.816-1.755,30.84-4.506,41.5-2.722,10.55.414,25,2,33,2.3,11.585,3.563,35.352,14.519,38,7.837,1.894,16.52-6.547,20.026-10,13.029-12.835,23-29.237,23.029-55,0.015-12.608-3.806-47.18-16.521-43-2.474.813-11.418,27.335-15.019,27-5.567-.065-9.217-2.13,4.5-21.5,3.7-5.224,5.54-12.708,7.009-20,3.2-15.865-8.261-30.263-14.018-38.5C316.789,42.176,262.657,20.3,237.807,27.5Zm-128.666,27L93.12,57C78.139,60.6,68.245,69.681,62.581,83c-3.285,7.725-2.9,23.442,3.5,27.5,8.814,5.583,16.238-5.611,25.032-2,3.285,2.972-11.463,16.094-30.039,11.5-5.445-1.8-6.939-15.749-10.514-15.5-22.311-.178-40.091,53.206-35.045,83,5.427,32.045,21.882,49.616,51.066,58,5.085,1.461,13.432,5.346,21.528,3.5,21.209-4.837,16.881-34.793,20.526-57,1.566-9.537,4.626-21.4-1-29-8.574-11.587-43.089-.95-46.56,9-3.677,10.539,5.7,13.514,7.009,21-8.44,9.791-26.83-18.478-7.009-35,11.934-9.948,35.4-8.288,50.565-15,16.922-7.491,21.811-30.486,30.54-46.5C149.805,83.681,159.858,69.351,153.2,63,142.515,54.9,128,54.386,109.141,54.5Z"/>
  <path id="Shape_1_copy_3" data-name="Shape 1 copy 3" class="cls-2" d="M72.439,300.582c2.168-.154,4.475-1.093,6.916-1.538C91.893,296.761,102.95,312.356,109,317c2.07,1.589,1.572,4.375,1.477,7.038l1.921,1.667a17.1,17.1,0,0,1,2.561,5.383c3.7,11.438-3.1,24.17-10.245,27.43-2.065.941-4.524,0.026-6.02,0.256-0.439.241-8.763,7.758-19.6,4.358C75.961,365.07,75.131,364.9,66.8,365.7c-3.246.595-15.072,0.313-17.674-.769-1.9-.791-3.038-2.417-4.739-3.333-4.621,3.024-9.729.731-14.856-.385C22.012,359.572,12.935,353.9,15,341c1.1-6.857,5.922-16.655,10.181-20.422,1.22-1.074,2.26-1.923,3.714-2.051,0.961-8.384,9.216-12.01,12.3-11.664C38.174,304.784,59.475,288.126,72.439,300.582Zm-27.408,6.537a32.431,32.431,0,0,1,4.995.257c2.741,0.36,6.882,1.642,12.679,1.538,8.455-3.146,7.372-5.148,7.044-5.64C61.3,293.917,44.762,305.1,45.032,307.119Zm32.787-4.1c-3.034.758-9.081,4.144-9.605,6.024-0.349,1.248,2.352,2.392,7.044,3.717C80.09,313.638,88.574,326.272,80,319c-4.013-3.4-3.766-3.556-9.482-5.216-2.99-.868-7.177-1.389-9.605.513-2.935,2.3-6.466,9.172-7.812,13.074-0.7,2.018-.564,5.35.768,6.409,1.278,1.016,3.7.973,5.507,1.41,4.016,0.968,9.488,3.264,10.246,7.049,0.569,2.843,1.663,5.514-.622,6.761-1.4.765-5.8,3.036-6,1a13.451,13.451,0,0,1,3.036-2.634c-0.552.128,9.045-5.095-9.733-9.869-1.1-.279-3.663-1.248-5.379-0.513a6.517,6.517,0,0,0-2.946,3.461c-0.884,2.482-2.374,14.469-1.281,17.176,2.287,5.66,11.612,4.486,19.467,4.486,3.1,0,7.084.417,9.093-.769C78.1,359.657,76.689,349.786,79,349c2.809,0.131.781,7.053,1.508,9.646,0.583,2.076,3.808,2.759,6.916,2.179,7.913-1.476,9.64-5.317,7.556-13.971-0.463-1.923-.817-4.058-1.793-5.512-1.264-1.881-6.5-1.149-8.837-1.922-2.508-.832-13.715-9.406-14.6-11.408-0.1-1.45.144-1.8,1.281-1.154,4.99,2.52,8.047,7.585,13.448,9.614,4.807,1.805,9.892.526,11.526-3.461,2.509-6.122-4.563-7.678-5-12.011,0.128-.043,1.872.043,2,0,1.438,0.9,2.193-.55,2.877,1.116A35.229,35.229,0,0,1,97.8,326.6c0.949,3.8-.449,7.906-1.153,10.639-0.7,2.7.106,6.408,0.512,8.459,0.588,2.97.912,9.063,3.714,9.742,2.005,0.485,4.227-1.679,5.123-2.564a18.6,18.6,0,0,0,5.892-14.1c0-3.232-.974-12.095-4.227-11.023-0.632.208-1.738,10.33-2.659,10.244-1.424-.017-3.541-3.869-0.03-8.835a13.894,13.894,0,0,0,1.793-5.127c0.818-4.067-4.29-6.927-5.763-9.038C95.846,307.611,84.175,301.173,77.818,303.018ZM44.9,309.939l-4.1.641a10.854,10.854,0,0,0-7.812,6.665c-0.84,1.98-.742,6.01.9,7.05,2.255,1.431,4.154-1.439,6.4-.513,0.84,0.762-2.932,4.126-7.684,2.948-1.393-.462-1.775-4.037-2.69-3.973C24.212,322.711,17.709,337.362,19,345c1.388,8.215,7.552,11.753,15.018,13.9,1.3,0.375,3.436,1.371,5.507.9,5.426-1.241,4.318-8.92,5.251-14.613,0.4-2.444,1.183-5.485-.256-7.434-2.193-2.97-12.632.7-13.52,3.247-0.941,2.7,4.665,4.081,5,6-2.159,2.51-12.07-4.764-7-9,3.053-2.55,12.666-3.653,16.544-5.374,4.329-1.92,5.579-7.815,7.812-11.92,1.95-3.286,4.521-6.96,2.818-8.588C53.441,310.042,49.728,309.91,44.9,309.939Z"/>
  <path id="Shape_1_copy_4" data-name="Shape 1 copy 4" class="cls-2" d="M47.48,391.684c1.27-.09,2.622-0.641,4.052-0.9,7.345-1.337,15.855,5.921,17.558,10.435a7.87,7.87,0,0,1,.675,4.2L70.89,406.4a10.033,10.033,0,0,1,1.5,3.154c2.17,6.7-1.815,14.156-6,16.066-1.209.551-2.651,0.015-3.526,0.15-0.257.141-5.134,4.544-11.48,2.552-1.838,1.135-2.325,1.033-7.2,1.5-1.9.348-8.83,0.183-10.354-.451-1.113-.463-1.78-1.415-2.776-1.952-2.707,1.771-5.983,1.206-8.7-.225-4.272-2.247-8.338-6.186-7.128-13.739,0.643-4.016,2.082-7.853,4.577-10.059a3.84,3.84,0,0,1,2.176-1.2c0.563-4.91,5.4-7.034,7.2-6.831C27.4,394.145,39.885,384.388,47.48,391.684Zm-16.057,3.829a18.854,18.854,0,0,1,2.926.15,37.351,37.351,0,0,0,7.428.9c4.953-1.843,4.319-3.015,4.127-3.3C40.954,387.78,31.265,394.329,31.423,395.513Zm19.208-2.4c-1.778.444-5.32,2.428-5.627,3.529-0.2.731,1.378,1.4,4.127,2.177,2.832,0.515,9.626,9.414,4.6,5.155-2.351-1.993-4.031-3.582-7.38-4.554-1.752-.509-4.2-0.814-5.627.3-1.72,1.346-3.788,5.372-4.577,7.657-0.408,1.183-.33,3.134.45,3.754,0.749,0.6,2.165.57,3.226,0.826,2.353,0.567,5.18,2.023,6,4.129a3.6,3.6,0,0,1-1.8,4.58c-0.821.448-2.134,0.667-2.251-.526,0.51-.614,1.27-0.6,1.951-1.051-0.324.075,5.3-2.984-5.7-5.781-0.643-.163-2.146-0.731-3.151-0.3a3.815,3.815,0,0,0-1.726,2.027c-0.518,1.454-1.391,8.475-.75,10.06,1.34,3.315,6.8,2.628,11.405,2.628,1.813,0,4.15.244,5.327-.451,1.667-.984.522-4.344,1.876-4.805,1.646,0.077.774,1.71,1.2,3.229,0.341,1.216,2.231,1.615,4.052,1.276,4.636-.865,5.648-3.114,4.427-8.183a10.41,10.41,0,0,0-1.05-3.228c-0.74-1.1-3.811-.674-5.177-1.127-1.469-.486-8.035-5.508-8.554-6.681-0.06-.85.084-1.053,0.75-0.676,2.924,1.476,4.715,4.443,7.878,5.631,2.816,1.057,5.8.308,6.753-2.027,1.47-3.586-1.617-6.246-1.876-8.784l0.225-.075a4.783,4.783,0,0,1,1.576,2.477,20.693,20.693,0,0,1,1.125,2.628c0.556,2.225-.263,4.631-0.675,6.231a12.388,12.388,0,0,0,.3,4.955c0.345,1.74.534,5.308,2.176,5.706,1.175,0.284,2.476-.983,3-1.5a10.892,10.892,0,0,0,3.452-8.258c0-1.893-.57-7.084-2.476-6.456-0.371.122-1.711,4.1-2.251,4.054-0.834-.01-1.381-0.32.675-3.229a8.128,8.128,0,0,0,1.05-3c0.479-2.383-1.238-4.544-2.1-5.781C62.468,395.314,54.355,392.03,50.631,393.11Zm-19.283,4.054-2.4.376a6.356,6.356,0,0,0-4.577,3.9c-0.492,1.159-.435,3.519.525,4.129,1.321,0.838,2.434-.843,3.752-0.3,0.492,0.447-1.718,2.417-4.5,1.727-0.816-.271-1.04-2.365-1.576-2.327-3.344-.027-6.008,7.989-5.252,12.462,0.813,4.812,3.279,7.45,7.653,8.709a6.389,6.389,0,0,0,3.226.525c3.179-.726,2.53-5.224,3.076-8.558,0.235-1.432.693-3.213-.15-4.355-1.285-1.739-6.458-.142-6.978,1.352-0.551,1.582.854,2.029,1.05,3.153-1.265,1.47-4.021-2.774-1.05-5.255,1.788-1.494,5.306-1.245,7.578-2.252,2.536-1.125,3.269-4.578,4.577-6.982,1.142-1.925,2.649-4.077,1.651-5.03C36.35,397.225,34.174,397.147,31.348,397.164Z"/>
</svg>
